<svg xmlns="http://www.w3.org/2000/svg" xmlns:xlink="http://www.w3.org/1999/xlink" width="674" height="578" viewBox="0 0 674 578">
  <defs>
    <clipPath id="clip-path">
      <rect id="Rectangle_43" data-name="Rectangle 43" width="674" height="578" rx="16" transform="translate(830 176)" fill="#1d1d1d"/>
    </clipPath>
    <linearGradient id="linear-gradient" x1="0.791" y1="0.015" x2="0.07" y2="0.96" gradientUnits="objectBoundingBox">
      <stop offset="0" stop-color="#ffbc07"/>
      <stop offset="1" stop-color="#ee014a"/>
    </linearGradient>
  </defs>
  <g id="Mask_Group_12" data-name="Mask Group 12" transform="translate(-830 -176)" clip-path="url(#clip-path)">
    <g id="Group_19" data-name="Group 19">
      <circle id="Ellipse_3" data-name="Ellipse 3" cx="209" cy="209" r="209" transform="translate(1126 420)" fill="#a2002c"/>
      <circle id="Ellipse_4" data-name="Ellipse 4" cx="209" cy="209" r="209" transform="translate(804 83)" fill="#a2002c"/>
      <circle id="Ellipse_1" data-name="Ellipse 1" cx="425" cy="425" r="425" transform="translate(640 127)" fill="#f8004d"/>
      <circle id="Ellipse_2" data-name="Ellipse 2" cx="316" cy="316" r="316" transform="translate(1027 39)" fill="#ffbc07"/>
      <circle id="Ellipse_5" data-name="Ellipse 5" cx="228" cy="228" r="228" transform="translate(950 262)" fill="url(#linear-gradient)"/>
    </g>
    <rect id="Rectangle_44" data-name="Rectangle 44" width="708" height="621" transform="translate(810 158)" opacity="0.3"/>
    <g id="vuesax_bold_call" data-name="vuesax/bold/call" transform="translate(738.268 -24.291)" opacity="0.044">
      <g id="call" transform="translate(108 188)">
        <path id="Vector" d="M283.786,406.081l-58.012,58.012a31.515,31.515,0,0,1-44.214.314c-3.449-3.449-6.9-6.585-10.348-10.034A890.99,890.99,0,0,1,83.725,351.832c-25.713-35.748-46.409-71.5-61.461-106.929C7.526,209.155,0,174.975,0,142.364a162.217,162.217,0,0,1,11.289-60.52C18.815,62.715,30.73,45.155,47.35,29.476,67.419,9.721,89.369,0,112.574,0a58.927,58.927,0,0,1,25.4,5.644,51.118,51.118,0,0,1,21.01,17.56l72.75,102.539a107.316,107.316,0,0,1,12.543,21.95,49.564,49.564,0,0,1,4.39,19.128,42.568,42.568,0,0,1-6.585,22.264,106.657,106.657,0,0,1-17.56,22.264l-23.832,24.773a16.781,16.781,0,0,0-5.017,12.543,28.47,28.47,0,0,0,.941,7.212c.941,2.509,1.881,4.39,2.509,6.272,5.644,10.348,15.365,23.832,29.163,40.138,14.111,16.306,29.163,32.926,45.469,49.545,3.136,3.136,6.585,6.272,9.721,9.407A31.421,31.421,0,0,1,283.786,406.081Z" transform="translate(62.715 62.715)" fill="#fff"/>
        <path id="Vector-2" data-name="Vector" d="M387.894,134.524a79.636,79.636,0,0,1-4.7,26.654,76.6,76.6,0,0,1-3.136,7.526,129.382,129.382,0,0,1-21.323,31.985c-15.365,16.933-32.3,29.163-51.427,37-.314,0-.627.314-.941.314a158.407,158.407,0,0,1-60.207,11.6c-31.985,0-66.165-7.526-102.226-22.891s-72.122-36.061-107.87-62.088C23.832,155.534,11.6,146.44,0,136.719L102.539,34.18a176.175,176.175,0,0,0,23.2,15.052c1.568.627,3.449,1.568,5.644,2.509a21.651,21.651,0,0,0,7.839,1.254,17.252,17.252,0,0,0,12.857-5.331l23.832-23.518c7.839-7.839,15.365-13.8,22.577-17.56A41.757,41.757,0,0,1,220.758,0a50.043,50.043,0,0,1,19.128,4.076,121.277,121.277,0,0,1,21.95,12.229L365.63,90c8.153,5.644,13.8,12.229,17.247,20.069A64.334,64.334,0,0,1,387.894,134.524Z" transform="translate(301.033 440.261)" fill="#fff"/>
        <path id="Vector-3" data-name="Vector" d="M0,0H752.583V752.583H0Z" transform="translate(752.583 752.583) rotate(180)" fill="none" opacity="0"/>
      </g>
    </g>
  </g>
</svg>
