<svg id="vuesax_bold_blogger" data-name="vuesax/bold/blogger" xmlns="http://www.w3.org/2000/svg" width="24" height="24" viewBox="0 0 24 24">
  <g id="blogger">
    <path id="BG_114" data-name="BG 114" d="M0,0H24V24H0Z" fill="none" opacity="0.58"/>
    <path id="Vector" d="M4.75,0h-4A.755.755,0,0,0,0,.75a.755.755,0,0,0,.75.75h4A.755.755,0,0,0,5.5.75.755.755,0,0,0,4.75,0Z" transform="translate(9.25 13.25)" fill="#e6e6e6"/>
    <path id="Vector-2" data-name="Vector" d="M.75,1.5h2A.755.755,0,0,0,3.5.75.755.755,0,0,0,2.75,0h-2A.755.755,0,0,0,0,.75.755.755,0,0,0,.75,1.5Z" transform="translate(9.25 9.25)" fill="#e6e6e6"/>
    <path id="Vector-3" data-name="Vector" d="M14.18,0H5.81C2.17,0,0,2.17,0,5.81v8.37c0,3.64,2.17,5.81,5.81,5.81h8.37c3.64,0,5.81-2.17,5.81-5.81V5.81C19.99,2.17,17.82,0,14.18,0Zm1.81,13a2.652,2.652,0,0,1-3,3h-6a2.652,2.652,0,0,1-3-3V7a2.652,2.652,0,0,1,3-3h4a2.652,2.652,0,0,1,3,3V8a1,1,0,0,0,1,1,1,1,0,0,1,1,1Z" transform="translate(2.01 2)" fill="#e6e6e6"/>
    <path id="Vector-4" data-name="Vector" d="M0,0H24V24H0Z" fill="none" opacity="0"/>
  </g>
</svg>
