<svg xmlns="http://www.w3.org/2000/svg" width="24" height="24" viewBox="0 0 24 24">
  <g id="vuesax_bold_emoji-happy" data-name="vuesax/bold/emoji-happy" transform="translate(-428 -380)">
    <g id="emoji-happy">
      <path id="Vector" d="M14.19,0H5.81C2.17,0,0,2.17,0,5.81v8.37C0,17.83,2.17,20,5.81,20h8.37c3.64,0,5.81-2.17,5.81-5.81V5.81C20,2.17,17.83,0,14.19,0ZM6.5,4.38A1.88,1.88,0,1,1,4.62,6.25,1.884,1.884,0,0,1,6.5,4.38ZM10,17.08A4.887,4.887,0,0,1,5.12,12.2a1.28,1.28,0,0,1,1.27-1.28h7.2a1.274,1.274,0,0,1,1.27,1.28A4.857,4.857,0,0,1,10,17.08Zm3.5-8.96a1.88,1.88,0,1,1,1.88-1.88A1.884,1.884,0,0,1,13.5,8.12Z" transform="translate(430 382)" fill="#e6e6e6"/>
      <path id="Vector-2" data-name="Vector" d="M0,0H24V24H0Z" transform="translate(452 404) rotate(180)" fill="none" opacity="0"/>
    </g>
  </g>
</svg>
