<?xml version="1.0" encoding="utf-8"?>
<!-- Generator: Adobe Illustrator 27.3.1, SVG Export Plug-In . SVG Version: 6.00 Build 0)  -->
<svg version="1.1" id="Layer_1" xmlns="http://www.w3.org/2000/svg" xmlns:xlink="http://www.w3.org/1999/xlink" x="0px" y="0px"
	 viewBox="0 0 64 64" style="enable-background:new 0 0 64 64;" xml:space="preserve">
<style type="text/css">
	.st0{display:none;}
	.st1{display:inline;fill:#FFFFFF;}
	.st2{fill:#FFFFFF;}
</style>
<g class="st0">
	<path class="st1" d="M525,103c-4.6,7.2-12.7,12-21.9,12c-14.4,0-26-11.7-26-26c0-12.1,8.2-22.3,19.4-25.2c-2.6,4-4.1,8.8-4.1,14
		c0,14.4,11.7,26,26,26C520.7,103.9,522.9,103.6,525,103z"/>
	<path class="st1" d="M505.6,82.4l0.9,1.6c0,0.1,0.1,0.2,0.2,0.2l1.6,0.9c0.4,0.2,0.4,0.7,0,0.9l-1.6,0.9c-0.1,0.1-0.2,0.1-0.2,0.2
		l-0.9,1.6c-0.2,0.4-0.7,0.4-0.9,0l-0.9-1.6c0-0.1-0.1-0.2-0.2-0.2L502,86c-0.4-0.2-0.4-0.7,0-0.9l1.6-0.9c0.1-0.1,0.2-0.1,0.2-0.2
		l0.9-1.6C504.9,82,505.4,82,505.6,82.4z"/>
	<path class="st1" d="M519.4,75.5l0.9,1.6c0,0.1,0.1,0.2,0.2,0.2l1.6,0.9c0.3,0.2,0.3,0.7,0,0.9l-1.6,0.9c-0.1,0.1-0.2,0.1-0.2,0.2
		l-0.9,1.6c-0.2,0.4-0.7,0.4-0.9,0l-0.9-1.6c0-0.1-0.1-0.2-0.2-0.2l-1.6-0.9c-0.3-0.2-0.3-0.7,0-0.9l1.6-0.9
		c0.1-0.1,0.2-0.1,0.2-0.2l0.9-1.6C518.7,75.2,519.2,75.2,519.4,75.5z"/>
	<path class="st1" d="M521.6,91.9l0.9,1.6c0,0.1,0.1,0.2,0.2,0.2l1.6,0.9c0.3,0.2,0.3,0.7,0,0.9l-1.6,0.9c-0.1,0.1-0.2,0.1-0.2,0.2
		l-0.9,1.6c-0.2,0.3-0.7,0.3-0.9,0l-0.9-1.6c0-0.1-0.1-0.2-0.2-0.2l-1.6-0.9c-0.3-0.2-0.3-0.7,0-0.9l1.6-0.9
		c0.1-0.1,0.2-0.1,0.2-0.2l0.9-1.6C520.9,91.6,521.4,91.6,521.6,91.9z"/>
</g>
<path class="st2" d="M55.8,48.5c0,2.6,0,5.1,0,7.7c-0.1,0-0.2,0-0.2,0c-1.6,0-3.3,0-4.9,0c-0.1,0-0.2,0-0.3,0c0,0.5,0,0.9,0,1.3
	s0,0.9,0,1.3c0,0.4,0,0.8,0,1.3s0,0.9,0,1.3s0,0.9,0,1.3s0,0.9,0,1.3c-3.4,0-6.8,0-10.1,0c0-2.6,0-5.2,0-7.8c-0.1,0-0.2,0-0.3,0
	c-8,0-15.9,0-23.9,0c-0.1,0-0.2,0-0.2,0c0,0-0.1,0-0.1,0c0-0.1,0-0.2,0-0.2c0-2.9,0-5.8,0-8.7c0-0.2,0-0.3,0.2-0.4
	c1.2-1.3,2.4-2.6,3.6-3.9c0-0.1,0.1-0.1,0.2-0.2c-0.1,0-0.2,0-0.3,0c-2.7,0-5.3,0-8,0c-1,0-2,0-3,0c0-2.8,0-5.6,0-8.4
	c0.1,0,0.2,0,0.3,0c4.5,0,9,0,13.6,0c0.6,0,1.2-0.1,1.7-0.3c0.6-0.2,1-0.6,1.2-1.2c0.1-0.2,0.2-0.4,0.2-0.6c0.2-0.7,0.2-1.3,0.2-2
	c0-10,0-19.9,0-29.9c0-0.1,0-0.1,0-0.2c0,0,0-0.1,0-0.1c3.4,0,6.7,0,10.1,0c0,0.1,0,0.2,0,0.3c0,4.7,0,9.4,0,14.2
	c0,3.4,0,6.7,0,10.1c0,0.1,0,0.2,0,0.2c0.1-0.1,0.2-0.1,0.2-0.2c0.9-1,1.9-2.1,2.8-3.1c0.1-0.1,0.2-0.1,0.3-0.1c3.7,0,7.4,0,11.1,0
	c0.1,0,0.1,0,0.2,0c0,0,0,0,0,0c0,0,0,0,0,0c0,0,0,0,0,0s0,0,0,0s0,0,0,0s0,0,0,0c0,8.9,0,17.8,0,26.8c0,0,0,0,0,0s0,0,0,0
	c0,0,0,0,0,0c0,0,0,0,0,0c0,0,0,0,0,0s0,0,0,0c0,0,0,0,0,0c0,0,0,0,0,0c0.1,0,0.1,0,0.2,0c1.6,0,3.2,0,4.9,0
	C55.6,48.5,55.7,48.5,55.8,48.5z M40.2,48.4c0-5.6,0-11.2,0-16.8c0,0,0,0,0,0c-4.9,5.6-9.8,11.2-14.7,16.8
	C30.4,48.4,35.3,48.4,40.2,48.4z"/>
</svg>
